<?xml version="1.0" encoding="utf-8" ?><svg xmlns="http://www.w3.org/2000/svg" xmlns:xlink="http://www.w3.org/1999/xlink" viewBox="34 74 1143 313"><path fill="#062922" transform="scale(0.779948 0.779762)" d="M47.1006 99.1986C60.025 97.7884 74.3181 98.4271 87.3444 98.2552C104.629 98.0706 125.39 97.5058 138.634 110.67C157.646 129.567 152.745 165.641 152.558 190.606C152.4 212.543 152.541 234.48 152.982 256.413C151.684 268.805 152.509 283.591 152.702 296.162C152.798 302.445 152.442 316.855 153.288 322.681C152.317 334.676 153.767 347.97 152.894 359.244C149.18 407.211 158.393 455.298 206.275 477.656C211.769 480.222 230.046 486.51 233.083 491.526L232.746 492.656C226.954 495.655 168.191 494.296 158.303 493.208C151.628 492.434 145.047 490.999 138.655 488.925C106.722 478.764 82.8638 456.274 71.2649 424.737C67.8225 415.373 65.6073 405.603 64.6746 395.67C62.6496 375.26 63.8145 340.707 63.8268 319.28L63.7859 182.819C63.8034 164.021 65.1372 140.574 61.029 122.423C59.3243 114.892 51.0564 106.821 47.1006 99.1986Z"/><defs><linearGradient id="gradient_0" gradientUnits="userSpaceOnUse" x1="229.32948" y1="408.09598" x2="344.84787" y2="302.69437"><stop offset="0" stop-color="#406130"/><stop offset="1" stop-color="#9DB86E"/></linearGradient></defs><path fill="url(#gradient_0)" transform="scale(0.779948 0.779762)" d="M152.982 256.413C153.171 256.133 153.366 255.856 153.566 255.582C180.447 218.215 237.831 216.285 276.663 233.865C279.617 235.203 283.127 236.837 285.737 238.75C309.552 251.015 330.158 277.044 338.284 302.418C353.656 348.119 336.795 401.239 349.762 447.112C353.673 460.949 362.827 476.447 374.779 484.473C377.563 486.342 382.69 489.41 382.452 492.459C378.066 495.747 359.757 493.919 353.323 494.259C320.921 495.973 298.57 489.327 278.067 463.326C242.727 418.507 285.469 347.357 240.618 308.231C236.303 303.986 229.909 300.249 224.686 297.115C210.025 290.48 194.648 287.522 179.166 293.391C168.847 297.374 160.537 305.302 156.072 315.422C155.067 317.665 154.127 320.352 153.288 322.681C152.442 316.855 152.798 302.445 152.702 296.162C152.509 283.591 151.684 268.805 152.982 256.413Z"/><path fill="#9BB66D" transform="scale(0.779948 0.779762)" d="M285.737 238.75C309.552 251.015 330.158 277.044 338.284 302.418L336.95 302.304C329.948 295.791 325.55 288.592 319.7 281.057L291.372 244.618C288.763 241.204 287.882 242.441 285.737 238.75Z"/><path fill="#55753F" transform="scale(0.779948 0.779762)" d="M224.686 297.115C228.339 295.865 237.043 293.637 240.703 294.405C246.182 298.172 242.752 303.003 240.618 308.231C236.303 303.986 229.909 300.249 224.686 297.115Z"/><path fill="#062922" transform="scale(0.779948 0.779762)" d="M1345.54 243.94C1362.48 241.771 1370.72 246.798 1382.11 258.218L1382.18 246.687L1400.32 246.655L1400.41 297.299C1400.69 322.358 1406.22 362.364 1381.2 377.506C1370.39 384.049 1351.92 385.069 1339.8 382.015C1325.39 378.384 1317.27 368.465 1310.14 356.122L1319.33 353.309L1327.95 350.355C1334.03 360.976 1342.72 366.067 1354.74 366.348C1381.5 366.974 1381.85 346.464 1381.98 326.802C1375.11 334.02 1369.54 339.176 1359.3 341.102C1348.09 343.12 1336.53 340.617 1327.16 334.14C1293.55 311.153 1301.76 251.767 1345.54 243.94ZM1359.63 323.431C1361.5 322.86 1365.77 321.657 1367.25 320.712C1393.1 304.234 1385.31 258.981 1350.51 261.101C1313.17 272.681 1319.79 324.928 1359.63 323.431Z"/><path fill="#062922" transform="scale(0.779948 0.779762)" d="M1272.81 204.159L1291.47 204.14L1291.87 341.804C1285.63 341.823 1279.12 341.602 1272.85 341.484L1272.76 328.494C1257.69 345.037 1240.2 347.26 1220.29 338.452C1179.29 316.838 1190.27 243.625 1239.81 243.276C1254.58 243.172 1262.57 248.447 1272.78 258.406L1272.81 204.159ZM1249.05 325.806C1288.13 313.15 1277.09 258.952 1240.06 261.137C1201.46 271.357 1209.24 327.797 1249.05 325.806Z"/><path fill="#062922" transform="scale(0.779948 0.779762)" d="M1053.66 204.314C1060.24 204.095 1067.02 204.255 1073.61 204.322L1073.81 291.015C1073.83 307.525 1074.18 325.519 1073.27 341.904L1053.64 341.875C1053.13 322.257 1053.52 301.013 1053.52 281.271C1031 280.477 1006.08 281.082 983.403 281.295C983.285 301.481 983.269 321.666 983.358 341.852L963.052 341.817L963.116 204.307C969.896 204.162 976.679 204.217 983.455 204.475L983.847 262.557L1053.68 262.531L1053.66 204.314Z"/><path fill="#062922" transform="scale(0.779948 0.779762)" d="M1455.44 243.903C1457.88 243.756 1460.32 243.656 1462.76 243.603C1496.36 243.108 1507.18 269.502 1507.39 298.639C1483.26 299.242 1458.2 298.884 1433.93 299.108C1435.43 307.312 1438.31 314.325 1444.73 319.923C1450.14 324.619 1457.2 326.959 1464.35 326.423C1475.06 325.672 1481.58 320.239 1488.13 312.614C1492.79 313.514 1500.64 317.021 1505.3 318.926L1505.14 319.173C1497.53 331.001 1486.24 339.704 1472.39 342.415C1407.63 355.091 1389.64 257.29 1455.44 243.903ZM1434.45 283.717L1467.19 283.81C1474.36 283.908 1480.59 283.921 1487.78 283.605C1483.94 267.256 1476.07 259.577 1458.64 260.459C1443.25 264.106 1439.18 268.8 1434.45 283.717Z"/><path fill="#062922" transform="scale(0.779948 0.779762)" d="M1133.34 244.004C1134.79 243.868 1136.25 243.779 1137.7 243.735C1155.28 243.278 1170.04 251.494 1177.85 267.417C1183.15 278.22 1183.12 287.48 1183.33 299.158L1110.27 299.177C1114.03 320.27 1128.94 331.819 1150.75 324.352C1158.04 321.854 1159.63 315.815 1165.72 312.84C1171 314.895 1176.25 317.015 1181.47 319.202C1180.76 320.329 1180.02 321.432 1179.24 322.508C1163.21 344.532 1132.41 350.889 1110.02 334.594C1088.03 318.627 1084.57 283.28 1100.5 261.985C1108.79 250.902 1119.98 245.895 1133.34 244.004ZM1110.78 284.223C1120.9 284.1 1131.01 284.046 1141.12 284.062L1164.38 284.049C1159.58 267.618 1153.68 259.851 1135.28 260.446C1119.79 264.073 1115.13 269.131 1110.78 284.223Z"/><path fill="#062922" transform="scale(0.779948 0.779762)" d="M845.581 244.064C880.244 244.829 891.336 267.723 891.557 299.128L818.415 299.27C821.245 319.328 835.875 330.766 856.116 325.473C865.246 323.086 865.714 319.337 872.172 313.522C873.18 312.613 874.97 313.558 876.178 313.953C880.909 315.93 885.111 317.652 889.644 320.044C888.003 322.09 886.327 324.109 884.618 326.099C867.512 345.823 833.409 350.676 815.233 332.584C783.889 301.388 798.485 246.944 845.581 244.064ZM819.013 284.201C829.196 284.118 839.38 284.112 849.562 284.183L872.047 284.099C866.072 265.272 860.467 259.816 840.243 261.134C826.363 265.687 823.024 270.37 819.013 284.201Z"/><path fill="#062922" transform="scale(0.779948 0.779762)" d="M697.656 204.15L717.205 204.171C717.212 222.504 717.359 240.838 717.648 259.169C718.491 258.219 719.363 257.293 720.261 256.394C738.388 238.018 775.672 239.061 782.036 267.176C786.783 288.146 784.602 319.987 784.338 341.881L765.099 341.801L765.063 293.31C765.031 278.409 762.486 260.776 743.076 261.081C736.542 261.208 730.324 263.921 725.787 268.626C716.379 278.348 717.314 294.317 717.141 306.977C716.983 318.515 717.323 330.31 717.49 341.864L698.259 341.881C697.505 328.024 697.856 307.47 697.781 293.306L697.656 204.15Z"/><path fill="#062922" transform="scale(0.779948 0.779762)" d="M582.781 204.154L685.435 204.163L685.462 222.617L644.117 222.665L643.914 300.375L643.674 341.834L623.438 341.847C622.925 302.552 623.399 262.148 623.332 222.745C610.192 222.399 595.993 222.663 582.772 222.658L582.781 204.154Z"/><defs><linearGradient id="gradient_1" gradientUnits="userSpaceOnUse" x1="221.62253" y1="381.66647" x2="197.33548" y2="412.3591"><stop offset="0" stop-color="#A0B972"/><stop offset="1" stop-color="#698441"/></linearGradient></defs><path fill="url(#gradient_1)" transform="scale(0.779948 0.779762)" d="M177.872 359.687C200.608 364.632 216.982 370.99 230.821 391.46C240.271 405.438 240.255 420.728 239.388 436.949L239.742 442.26L242.66 455.441C213.974 455.649 184.145 437.232 179.319 407.514C175.513 392.512 177.219 375.252 177.872 359.687Z"/><defs><linearGradient id="gradient_2" gradientUnits="userSpaceOnUse" x1="205.95029" y1="449.81998" x2="212.40898" y2="398.7919"><stop offset="0" stop-color="#31572D"/><stop offset="1" stop-color="#789047"/></linearGradient></defs><path fill="url(#gradient_2)" transform="scale(0.779948 0.779762)" d="M179.319 407.514C179.975 403.081 178.74 399.23 179.254 395.254C188.427 399.698 203.508 413.7 212.854 420C208.757 420.023 202.346 419.884 198.492 420.432C204.892 420.793 208.907 420.973 215.281 419.954C218.54 424.479 221.856 431.031 224.326 436.147L239.388 436.949L239.742 442.26L242.66 455.441C213.974 455.649 184.145 437.232 179.319 407.514Z"/><path fill="#55753F" transform="scale(0.779948 0.779762)" d="M224.326 436.147L239.388 436.949L239.742 442.26C236.299 441.349 232.907 442.292 229.394 442.944C226.951 440.476 226.127 439.03 224.326 436.147Z"/><path fill="#062922" transform="scale(0.779948 0.779762)" d="M860.968 411.808C872.609 410.821 868.511 413.704 877.066 415.728C878.243 413.824 878.623 412.965 880.443 411.638L881.835 412.026C884.646 415.489 883.678 425.827 883.876 430.695C884.448 444.727 880.708 468.479 860.747 460.433C856.39 458.677 851.849 456.537 852.222 450.953C859.994 450.56 860.938 456.544 868.126 455.942C872.826 455.549 878.97 447.65 878.251 442.973C874.261 439.566 871.047 447.412 863.493 446.05C859.271 445.258 855.535 442.826 853.101 439.287C850.296 435.16 849.28 430.074 850.286 425.188C851.749 418.262 855.529 415.451 860.968 411.808ZM870.254 440.313C883.003 431.301 878.352 415.881 863.137 417.059C853.07 425.302 853.908 439.544 866.446 440.231C867.714 440.294 868.984 440.321 870.254 440.313Z"/><path fill="#062922" transform="scale(0.779948 0.779762)" d="M932.35 398.19C933.772 398.221 935.284 398.352 936.712 398.446C943.282 401.905 959.411 428.406 964.561 436.152C964.231 428.884 962.109 403.194 967.698 399.203L968.849 400.406C971.848 409.717 970.696 434.458 970.415 445.294C963.27 451.693 942.44 414.105 938.591 408.056C938.704 414.775 939.6 440.748 937.449 445.687L935.281 445.798C930.133 442.202 932.286 405.763 932.35 398.19Z"/><path fill="#062922" transform="scale(0.779948 0.779762)" d="M662.403 411.228C675.246 412.307 678.738 419.377 679.678 431.149C672.305 431.181 659.367 430.863 652.619 432.164C658.756 443.528 661.719 442.377 672.477 437.266C673.575 437.218 675.082 437.37 676.207 437.448L677.092 438.521L676.798 440.294C668.511 451.495 650.29 448.067 647.581 433.055C646.551 427.547 647.808 421.857 651.063 417.296C654.334 412.804 657.326 412.073 662.403 411.228ZM669.187 426.065C671.627 425.553 671.404 426.017 672.595 424.441C672.079 418.828 664.831 416.846 660.058 416.89C657.95 418.513 655.865 419.792 654.921 422.264C655.37 427.575 665.133 426.161 669.187 426.065Z"/><path fill="#062922" transform="scale(0.779948 0.779762)" d="M989.956 411.887C1006.49 410.684 1010.18 417.901 1010.38 433.745C1010.43 437.751 1009.93 443.818 1006.7 446.476C1004.2 446.242 1004.82 446.094 1002.66 443.587C993.503 443.309 993.267 451.578 982.089 442.646C973.068 423.903 998.718 428.75 1002.59 422.451C1001.84 412.027 987.771 421.329 982.469 420.314L982.165 419.254C984.121 414.825 985.799 414.112 989.956 411.887ZM997.941 441.381C1006.99 433.778 1003.01 430.269 993.091 430.483C992.79 430.49 992.49 430.502 992.189 430.518C989.594 431.989 988.225 432.466 987.098 435.161C986.866 441.617 992.935 442.004 997.941 441.381Z"/><path fill="#062922" transform="scale(0.779948 0.779762)" d="M695.358 411.871C703.507 411.354 710.93 411.36 714.398 420.481C716.569 426.191 716.851 439.8 714.384 445.371C712.206 446.533 713.165 446.379 710.778 446L709.058 443.548C701.038 440.945 702.423 452.347 688.428 443.344C676.118 425.08 705.619 428.858 708.532 422.079C705.688 410.109 692.448 423.646 688.535 419.581C688.959 415.158 691.932 414.007 695.358 411.871ZM703.629 441.177C706.119 439.358 707.474 438.656 708.665 435.871C708.676 430.706 704.43 430.357 700.216 430.488C699.317 430.519 698.419 430.567 697.522 430.633C695.128 432.086 693.909 432.542 692.997 435.125C693.32 441.165 698.497 442.199 703.629 441.177Z"/><path fill="#062922" transform="scale(0.779948 0.779762)" d="M1118.37 411.907C1129.46 410.59 1137.64 412.299 1138.97 425.732C1139.6 432.079 1139.27 439.36 1137.55 445.539L1136.25 446.133C1133.28 445.495 1134.17 445.694 1131.84 442.99C1121.94 444.197 1123.48 451.615 1111.8 442.934C1099.61 425.47 1125.11 428.738 1131.79 424.668C1132.19 423.914 1132.73 423.321 1132.54 422.696C1129.46 412.447 1116.1 421.648 1111.9 419.245C1112.09 415.221 1115.3 413.828 1118.37 411.907ZM1127.07 441.236C1130.78 438.203 1133.82 436.359 1130.38 431.87C1127.23 430.126 1124.9 430.34 1121.3 430.583C1111.26 436.715 1117.55 442.223 1127.07 441.236Z"/><path fill="#0C2629" transform="scale(0.779948 0.779762)" d="M758.187 412.621C759.068 413.583 759.423 413.881 760.011 415.033C764.809 415.254 774.495 407.958 779.706 414.503C783.775 419.614 785.124 442.113 779.865 445.986C771.385 443.974 782.302 418.872 770.488 417.157C768.284 416.837 765.258 417.572 763.086 417.998C761.164 421.141 760.585 422.075 760.082 425.686C759.384 430.694 761.026 443.098 756.471 445.701C751.879 441.97 751.207 416.619 755.19 412.56L758.187 412.621Z"/><path fill="#062922" transform="scale(0.779948 0.779762)" d="M763.086 417.998C761.164 421.141 760.585 422.075 760.082 425.686C759.384 430.694 761.026 443.098 756.471 445.701C751.879 441.97 751.207 416.619 755.19 412.56L758.187 412.621C756.188 414.932 755.287 413.646 755.009 417.901C754.85 420.341 753.771 421.074 755.919 422.759C760.563 421.45 759.871 418.867 763.086 417.998Z"/><path fill="#062922" transform="scale(0.779948 0.779762)" d="M823.661 411.818C835.102 411.402 840.626 413.941 841.035 426.869C841.194 431.909 842.415 443.095 839.141 446.743L837.712 446.545C828.201 438.65 844.447 424.449 826.586 416.165C810.658 424.185 822.202 445.883 813.503 445.75C810.513 442.577 810.435 416.792 813.068 413.64C820.008 413.965 817.504 416.45 823.661 411.818Z"/><path fill="#062922" transform="scale(0.779948 0.779762)" d="M1207.45 411.673C1210.5 412.049 1210.51 411.582 1212.65 413.202C1212.03 418.379 1206.07 431.17 1203.79 436.572C1200.83 443.569 1196.11 457.054 1190.23 461.345L1189.34 460.636C1188.52 455.47 1191.78 449.715 1193.98 445.117L1191.44 438.564C1189.48 433.228 1180.63 417.163 1181.79 412.763C1189.97 411.512 1194.82 431.232 1197.27 437.791C1200.83 429.151 1204.22 420.444 1207.45 411.673Z"/><path fill="#062922" transform="scale(0.779948 0.779762)" d="M611.317 398.212C613.417 398.3 615.081 398.151 616.733 399.468C618.797 405.403 618.019 432.474 617.986 440.293C624.547 440.209 633.216 438.346 639.356 441.027C641.455 441.943 641.457 443.593 642.046 445.692C638.459 446.682 616.065 446.224 611.306 446.166L611.317 398.212Z"/><path fill="#062922" transform="scale(0.779948 0.779762)" d="M1022.34 402.25C1024.63 402.447 1024.97 402.485 1027.13 403.368C1029.24 406.398 1027.49 405.63 1028.25 410.084C1030.49 412.733 1032.4 411.834 1036.7 413.754L1037.12 415.051L1036 416.572C1033.49 417.796 1031 417.708 1028.22 417.834C1028.3 425.08 1028.21 432.328 1027.95 439.57C1031.76 440.351 1035.09 440.278 1036.95 443.843C1019.79 456.619 1022.35 427.542 1021.95 419.28C1019.46 415.626 1016.55 420.524 1015.52 414.751C1016.66 412.343 1018.23 412.509 1021.3 410.897C1022.77 409.056 1022.34 404.833 1022.34 402.25Z"/><path fill="#062922" transform="scale(0.779948 0.779762)" d="M1050.88 433.476C1053.37 438.819 1055.95 443.429 1062.76 440.705C1071.88 437.06 1066.44 415.258 1070.86 411.954C1072.8 412.265 1072.33 412.307 1073.99 413.926C1074.84 416.676 1075.64 440.955 1073.83 444.854C1073.35 445.883 1073 445.959 1072.12 446.583C1068.99 445.896 1068.42 442.861 1067.1 443.195C1057.37 445.661 1045.89 451.606 1045.42 435.187C1047.77 434.111 1048.33 433.969 1050.88 433.476Z"/><path fill="#062922" transform="scale(0.779948 0.779762)" d="M1166.83 397.903L1171.14 398.344C1172.44 399.391 1172.81 399.646 1172.9 401.55C1173.21 407.922 1174.33 443.265 1171.93 446.567C1170.49 446.111 1169.38 445.66 1167.99 445.097C1165.41 441.156 1166.72 405.535 1166.83 397.903Z"/><path fill="#062922" transform="scale(0.779948 0.779762)" d="M1149.64 397.819C1151.98 397.942 1152.4 397.944 1154.65 398.78C1157.08 402.159 1155.68 438.335 1155.53 445.897C1153.4 445.818 1152.38 445.928 1150.48 444.849C1148.47 439.36 1149.55 405.566 1149.64 397.819Z"/><path fill="#0C2629" transform="scale(0.779948 0.779762)" d="M1100.79 410.86C1103.04 411.259 1103.26 411.401 1104.98 412.917C1105.6 417.939 1094.4 418.817 1092.58 423.195C1089.57 430.475 1097.15 444.749 1086.42 446.263C1084.72 441.22 1085.24 419.799 1086.31 413.713C1086.61 411.978 1086.74 412.292 1088.14 411.438C1090.57 412.069 1090.13 412.457 1091.97 415.136C1094.65 414.908 1096.58 412.594 1100.79 410.86Z"/><path fill="#062922" transform="scale(0.779948 0.779762)" d="M727.768 411.248C733.493 413.885 730.115 414.6 733.24 415.525C736.741 413.193 739.598 410.529 743.97 411.852C745.799 413.815 745.421 412.882 745.594 415.323C740.31 423.226 733.801 412.878 732.185 428.403C732.211 433.083 733.076 442.239 729.494 445.33L728.276 444.559C725.042 438.666 724.259 416.049 727.768 411.248Z"/><path fill="#A0A1A3" fill-opacity="0.49803922" transform="scale(0.779948 0.779762)" d="M470.909 233.511C471.63 247.483 470.973 265.512 470.947 279.836L470.924 366.678L470.912 425.758C470.921 434.308 471.399 450.532 470.497 458.588C469.285 457.226 468.576 366.652 469.615 358.886C470.396 353.431 470.094 338.021 470.1 332.055L470.141 268.103C470.153 260.135 469.804 240.59 470.909 233.511Z"/><path fill="#062922" transform="scale(0.779948 0.779762)" d="M793.874 412.15C795.871 412.252 797.759 412.12 799.312 413.362C801.128 418.649 800.269 439.28 800.148 446.206C797.89 445.927 797.252 445.76 795.104 445.058C793.072 441.813 793.683 417.373 793.874 412.15Z"/><path fill="#8A8A8D" fill-opacity="0.83529413" transform="scale(0.779948 0.779762)" d="M469.615 358.886C468.86 311.056 469.957 262.944 469.461 215.087C469.336 203.031 469.196 189.934 469.994 177.962C471.787 184.763 470.983 223.363 470.909 233.511C469.804 240.59 470.153 260.135 470.141 268.103L470.1 332.055C470.094 338.021 470.396 353.431 469.615 358.886Z"/><path fill="#0C2629" transform="scale(0.779948 0.779762)" d="M1045.42 435.187C1045.24 429.291 1043.87 416.408 1048.48 412.512L1049.77 413.221C1052.61 418.15 1051.8 427.968 1050.88 433.476C1048.33 433.969 1047.77 434.111 1045.42 435.187Z"/><path fill="#062922" transform="scale(0.779948 0.779762)" d="M895.818 438.359C897.846 437.284 900.361 438.064 901.425 440.098C902.488 442.133 901.693 444.644 899.653 445.695C897.63 446.739 895.143 445.952 894.088 443.934C893.034 441.916 893.806 439.426 895.818 438.359Z"/><path fill="#062922" transform="scale(0.779948 0.779762)" d="M1218.94 438.36C1221.02 437.507 1223.39 438.483 1224.28 440.55C1225.16 442.617 1224.22 445.01 1222.16 445.921C1220.81 446.522 1219.23 446.347 1218.04 445.463C1216.85 444.578 1216.23 443.122 1216.42 441.651C1216.6 440.18 1217.56 438.923 1218.94 438.36Z"/><path fill="#062922" transform="scale(0.779948 0.779762)" d="M795.279 397.875C797.145 396.988 799.379 397.706 800.38 399.513C801.381 401.321 800.803 403.595 799.061 404.706C797.834 405.489 796.274 405.525 795.011 404.801C793.749 404.077 792.993 402.711 793.049 401.257C793.105 399.803 793.964 398.5 795.279 397.875Z"/></svg>