<svg xmlns="http://www.w3.org/2000/svg" viewBox="32 70 272 322"><path fill="#062922" transform="scale(0.779948 0.779762)" d="M47.1006 99.1986C60.025 97.7884 74.3181 98.4271 87.3444 98.2552C104.629 98.0706 125.39 97.5058 138.634 110.67C157.646 129.567 152.745 165.641 152.558 190.606C152.4 212.543 152.541 234.48 152.982 256.413C151.684 268.805 152.509 283.591 152.702 296.162C152.798 302.445 152.442 316.855 153.288 322.681C152.317 334.676 153.767 347.97 152.894 359.244C149.18 407.211 158.393 455.298 206.275 477.656C211.769 480.222 230.046 486.51 233.083 491.526L232.746 492.656C226.954 495.655 168.191 494.296 158.303 493.208C151.628 492.434 145.047 490.999 138.655 488.925C106.722 478.764 82.8638 456.274 71.2649 424.737C67.8225 415.373 65.6073 405.603 64.6746 395.67C62.6496 375.26 63.8145 340.707 63.8268 319.28L63.7859 182.819C63.8034 164.021 65.1372 140.574 61.029 122.423C59.3243 114.892 51.0564 106.821 47.1006 99.1986Z"/><defs><linearGradient id="lm_g0" gradientUnits="userSpaceOnUse" x1="229.32948" y1="408.09598" x2="344.84787" y2="302.69437"><stop offset="0" stop-color="#406130"/><stop offset="1" stop-color="#9DB86E"/></linearGradient></defs><path fill="url(#lm_g0)" transform="scale(0.779948 0.779762)" d="M152.982 256.413C153.171 256.133 153.366 255.856 153.566 255.582C180.447 218.215 237.831 216.285 276.663 233.865C279.617 235.203 283.127 236.837 285.737 238.75C309.552 251.015 330.158 277.044 338.284 302.418C353.656 348.119 336.795 401.239 349.762 447.112C353.673 460.949 362.827 476.447 374.779 484.473C377.563 486.342 382.69 489.41 382.452 492.459C378.066 495.747 359.757 493.919 353.323 494.259C320.921 495.973 298.57 489.327 278.067 463.326C242.727 418.507 285.469 347.357 240.618 308.231C236.303 303.986 229.909 300.249 224.686 297.115C210.025 290.48 194.648 287.522 179.166 293.391C168.847 297.374 160.537 305.302 156.072 315.422C155.067 317.665 154.127 320.352 153.288 322.681C152.442 316.855 152.798 302.445 152.702 296.162C152.509 283.591 151.684 268.805 152.982 256.413Z"/><path fill="#9BB66D" transform="scale(0.779948 0.779762)" d="M285.737 238.75C309.552 251.015 330.158 277.044 338.284 302.418L336.95 302.304C329.948 295.791 325.55 288.592 319.7 281.057L291.372 244.618C288.763 241.204 287.882 242.441 285.737 238.75Z"/><path fill="#55753F" transform="scale(0.779948 0.779762)" d="M224.686 297.115C228.339 295.865 237.043 293.637 240.703 294.405C246.182 298.172 242.752 303.003 240.618 308.231C236.303 303.986 229.909 300.249 224.686 297.115Z"/><defs><linearGradient id="lm_g1" gradientUnits="userSpaceOnUse" x1="221.62253" y1="381.66647" x2="197.33548" y2="412.3591"><stop offset="0" stop-color="#A0B972"/><stop offset="1" stop-color="#698441"/></linearGradient></defs><path fill="url(#lm_g1)" transform="scale(0.779948 0.779762)" d="M177.872 359.687C200.608 364.632 216.982 370.99 230.821 391.46C240.271 405.438 240.255 420.728 239.388 436.949L239.742 442.26L242.66 455.441C213.974 455.649 184.145 437.232 179.319 407.514C175.513 392.512 177.219 375.252 177.872 359.687Z"/><defs><linearGradient id="lm_g2" gradientUnits="userSpaceOnUse" x1="205.95029" y1="449.81998" x2="212.40898" y2="398.7919"><stop offset="0" stop-color="#31572D"/><stop offset="1" stop-color="#789047"/></linearGradient></defs><path fill="url(#lm_g2)" transform="scale(0.779948 0.779762)" d="M179.319 407.514C179.975 403.081 178.74 399.23 179.254 395.254C188.427 399.698 203.508 413.7 212.854 420C208.757 420.023 202.346 419.884 198.492 420.432C204.892 420.793 208.907 420.973 215.281 419.954C218.54 424.479 221.856 431.031 224.326 436.147L239.388 436.949L239.742 442.26L242.66 455.441C213.974 455.649 184.145 437.232 179.319 407.514Z"/><path fill="#55753F" transform="scale(0.779948 0.779762)" d="M224.326 436.147L239.388 436.949L239.742 442.26C236.299 441.349 232.907 442.292 229.394 442.944C226.951 440.476 226.127 439.03 224.326 436.147Z"/></svg>
