<?xml version="1.0" encoding="utf-8" ?><svg xmlns="http://www.w3.org/2000/svg" xmlns:xlink="http://www.w3.org/1999/xlink" viewBox="34 72 1148 318"><path fill="#062922" transform="scale(0.779948 0.779762)" d="M47.1006 99.1986C60.025 97.7884 74.3181 98.4271 87.3444 98.2552C104.629 98.0706 125.39 97.5058 138.634 110.67C157.646 129.567 152.745 165.641 152.558 190.606C152.4 212.543 152.541 234.48 152.982 256.413C151.684 268.805 152.509 283.591 152.702 296.162C152.798 302.445 152.442 316.855 153.288 322.681C152.317 334.676 153.767 347.97 152.894 359.244C149.18 407.211 158.393 455.298 206.275 477.656C211.769 480.222 230.046 486.51 233.083 491.526L232.746 492.656C226.954 495.655 168.191 494.296 158.303 493.208C151.628 492.434 145.047 490.999 138.655 488.925C106.722 478.764 82.8638 456.274 71.2649 424.737C67.8225 415.373 65.6073 405.603 64.6746 395.67C62.6496 375.26 63.8145 340.707 63.8268 319.28L63.7859 182.819C63.8034 164.021 65.1372 140.574 61.029 122.423C59.3243 114.892 51.0564 106.821 47.1006 99.1986Z"/><defs><linearGradient id="gradient_0" gradientUnits="userSpaceOnUse" x1="229.32948" y1="408.09598" x2="344.84787" y2="302.69437"><stop offset="0" stop-color="#406130"/><stop offset="1" stop-color="#9DB86E"/></linearGradient></defs><path fill="url(#gradient_0)" transform="scale(0.779948 0.779762)" d="M152.982 256.413C153.171 256.133 153.366 255.856 153.566 255.582C180.447 218.215 237.831 216.285 276.663 233.865C279.617 235.203 283.127 236.837 285.737 238.75C309.552 251.015 330.158 277.044 338.284 302.418C353.656 348.119 336.795 401.239 349.762 447.112C353.673 460.949 362.827 476.447 374.779 484.473C377.563 486.342 382.69 489.41 382.452 492.459C378.066 495.747 359.757 493.919 353.323 494.259C320.921 495.973 298.57 489.327 278.067 463.326C242.727 418.507 285.469 347.357 240.618 308.231C236.303 303.986 229.909 300.249 224.686 297.115C210.025 290.48 194.648 287.522 179.166 293.391C168.847 297.374 160.537 305.302 156.072 315.422C155.067 317.665 154.127 320.352 153.288 322.681C152.442 316.855 152.798 302.445 152.702 296.162C152.509 283.591 151.684 268.805 152.982 256.413Z"/><path fill="#9BB66D" transform="scale(0.779948 0.779762)" d="M285.737 238.75C309.552 251.015 330.158 277.044 338.284 302.418L336.95 302.304C329.948 295.791 325.55 288.592 319.7 281.057L291.372 244.618C288.763 241.204 287.882 242.441 285.737 238.75Z"/><path fill="#55753F" transform="scale(0.779948 0.779762)" d="M224.686 297.115C228.339 295.865 237.043 293.637 240.703 294.405C246.182 298.172 242.752 303.003 240.618 308.231C236.303 303.986 229.909 300.249 224.686 297.115Z"/><path fill="#062922" transform="scale(0.779948 0.779762)" d="M1345.54 243.94C1362.48 241.771 1370.72 246.798 1382.11 258.218L1382.18 246.687L1400.32 246.655L1400.41 297.299C1400.69 322.358 1406.22 362.364 1381.2 377.506C1370.39 384.049 1351.92 385.069 1339.8 382.015C1325.39 378.384 1317.27 368.465 1310.14 356.122L1319.33 353.309L1327.95 350.355C1334.03 360.976 1342.72 366.067 1354.74 366.348C1381.5 366.974 1381.85 346.464 1381.98 326.802C1375.11 334.02 1369.54 339.176 1359.3 341.102C1348.09 343.12 1336.53 340.617 1327.16 334.14C1293.55 311.153 1301.76 251.767 1345.54 243.94ZM1359.63 323.431C1361.5 322.86 1365.77 321.657 1367.25 320.712C1393.1 304.234 1385.31 258.981 1350.51 261.101C1313.17 272.681 1319.79 324.928 1359.63 323.431Z"/><path fill="#062922" transform="scale(0.779948 0.779762)" d="M1272.81 204.159L1291.47 204.14L1291.87 341.804C1285.63 341.823 1279.12 341.602 1272.85 341.484L1272.76 328.494C1257.69 345.037 1240.2 347.26 1220.29 338.452C1179.29 316.838 1190.27 243.625 1239.81 243.276C1254.58 243.172 1262.57 248.447 1272.78 258.406L1272.81 204.159ZM1249.05 325.806C1288.13 313.15 1277.09 258.952 1240.06 261.137C1201.46 271.357 1209.24 327.797 1249.05 325.806Z"/><path fill="#062922" transform="scale(0.779948 0.779762)" d="M1053.66 204.314C1060.24 204.095 1067.02 204.255 1073.61 204.322L1073.81 291.015C1073.83 307.525 1074.18 325.519 1073.27 341.904L1053.64 341.875C1053.13 322.257 1053.52 301.013 1053.52 281.271C1031 280.477 1006.08 281.082 983.403 281.295C983.285 301.481 983.269 321.666 983.358 341.852L963.052 341.817L963.116 204.307C969.896 204.162 976.679 204.217 983.455 204.475L983.847 262.557L1053.68 262.531L1053.66 204.314Z"/><path fill="#062922" transform="scale(0.779948 0.779762)" d="M1455.44 243.903C1457.88 243.756 1460.32 243.656 1462.76 243.603C1496.36 243.108 1507.18 269.502 1507.39 298.639C1483.26 299.242 1458.2 298.884 1433.93 299.108C1435.43 307.312 1438.31 314.325 1444.73 319.923C1450.14 324.619 1457.2 326.959 1464.35 326.423C1475.06 325.672 1481.58 320.239 1488.13 312.614C1492.79 313.514 1500.64 317.021 1505.3 318.926L1505.14 319.173C1497.53 331.001 1486.24 339.704 1472.39 342.415C1407.63 355.091 1389.64 257.29 1455.44 243.903ZM1434.45 283.717L1467.19 283.81C1474.36 283.908 1480.59 283.921 1487.78 283.605C1483.94 267.256 1476.07 259.577 1458.64 260.459C1443.25 264.106 1439.18 268.8 1434.45 283.717Z"/><path fill="#062922" transform="scale(0.779948 0.779762)" d="M1133.34 244.004C1134.79 243.868 1136.25 243.779 1137.7 243.735C1155.28 243.278 1170.04 251.494 1177.85 267.417C1183.15 278.22 1183.12 287.48 1183.33 299.158L1110.27 299.177C1114.03 320.27 1128.94 331.819 1150.75 324.352C1158.04 321.854 1159.63 315.815 1165.72 312.84C1171 314.895 1176.25 317.015 1181.47 319.202C1180.76 320.329 1180.02 321.432 1179.24 322.508C1163.21 344.532 1132.41 350.889 1110.02 334.594C1088.03 318.627 1084.57 283.28 1100.5 261.985C1108.79 250.902 1119.98 245.895 1133.34 244.004ZM1110.78 284.223C1120.9 284.1 1131.01 284.046 1141.12 284.062L1164.38 284.049C1159.58 267.618 1153.68 259.851 1135.28 260.446C1119.79 264.073 1115.13 269.131 1110.78 284.223Z"/><path fill="#062922" transform="scale(0.779948 0.779762)" d="M845.581 244.064C880.244 244.829 891.336 267.723 891.557 299.128L818.415 299.27C821.245 319.328 835.875 330.766 856.116 325.473C865.246 323.086 865.714 319.337 872.172 313.522C873.18 312.613 874.97 313.558 876.178 313.953C880.909 315.93 885.111 317.652 889.644 320.044C888.003 322.09 886.327 324.109 884.618 326.099C867.512 345.823 833.409 350.676 815.233 332.584C783.889 301.388 798.485 246.944 845.581 244.064ZM819.013 284.201C829.196 284.118 839.38 284.112 849.562 284.183L872.047 284.099C866.072 265.272 860.467 259.816 840.243 261.134C826.363 265.687 823.024 270.37 819.013 284.201Z"/><path fill="#062922" transform="scale(0.779948 0.779762)" d="M697.656 204.15L717.205 204.171C717.212 222.504 717.359 240.838 717.648 259.169C718.491 258.219 719.363 257.293 720.261 256.394C738.388 238.018 775.672 239.061 782.036 267.176C786.783 288.146 784.602 319.987 784.338 341.881L765.099 341.801L765.063 293.31C765.031 278.409 762.486 260.776 743.076 261.081C736.542 261.208 730.324 263.921 725.787 268.626C716.379 278.348 717.314 294.317 717.141 306.977C716.983 318.515 717.323 330.31 717.49 341.864L698.259 341.881C697.505 328.024 697.856 307.47 697.781 293.306L697.656 204.15Z"/><path fill="#062922" transform="scale(0.779948 0.779762)" d="M582.781 204.154L685.435 204.163L685.462 222.617L644.117 222.665L643.914 300.375L643.674 341.834L623.438 341.847C622.925 302.552 623.399 262.148 623.332 222.745C610.192 222.399 595.993 222.663 582.772 222.658L582.781 204.154Z"/><defs><linearGradient id="gradient_1" gradientUnits="userSpaceOnUse" x1="221.62253" y1="381.66647" x2="197.33548" y2="412.3591"><stop offset="0" stop-color="#A0B972"/><stop offset="1" stop-color="#698441"/></linearGradient></defs><path fill="url(#gradient_1)" transform="scale(0.779948 0.779762)" d="M177.872 359.687C200.608 364.632 216.982 370.99 230.821 391.46C240.271 405.438 240.255 420.728 239.388 436.949L239.742 442.26L242.66 455.441C213.974 455.649 184.145 437.232 179.319 407.514C175.513 392.512 177.219 375.252 177.872 359.687Z"/><defs><linearGradient id="gradient_2" gradientUnits="userSpaceOnUse" x1="205.95029" y1="449.81998" x2="212.40898" y2="398.7919"><stop offset="0" stop-color="#31572D"/><stop offset="1" stop-color="#789047"/></linearGradient></defs><path fill="url(#gradient_2)" transform="scale(0.779948 0.779762)" d="M179.319 407.514C179.975 403.081 178.74 399.23 179.254 395.254C188.427 399.698 203.508 413.7 212.854 420C208.757 420.023 202.346 419.884 198.492 420.432C204.892 420.793 208.907 420.973 215.281 419.954C218.54 424.479 221.856 431.031 224.326 436.147L239.388 436.949L239.742 442.26L242.66 455.441C213.974 455.649 184.145 437.232 179.319 407.514Z"/><path fill="#55753F" transform="scale(0.779948 0.779762)" d="M224.326 436.147L239.388 436.949L239.742 442.26C236.299 441.349 232.907 442.292 229.394 442.944C226.951 440.476 226.127 439.03 224.326 436.147Z"/></svg>
